#!OML:ASF F:\twosubjects\two\Thursday\Session 1\justin.ASF
:FULLY-SPECIFIED
:DEGREES
459
root 9.87925 18.0183 -2.44625 -169.425 28.9104 181.036
lowerback 2.40059 2.55122 -12.6807
upperback -0.290071 3.47196 7.90252
thorax -2.93873 2.17088 15.8816
lowerneck -22.3176 -7.36599 -16.8959
upperneck 21.2311 -2.78411 -3.07927
head 10.9573 -2.79631 1.14274
rclavicle 4.21423e-014 1.27222e-014
rhumerus 36.8307 9.24288 -69.2998
rradius 54.1112
rwrist -20.0309
rhand -55.9581 20.8403
rfingers 7.12502
rthumb -28.2961 -7.04236
lclavicle 4.21423e-014 1.27222e-014
lhumerus 41.3067 -6.52043 94.9564
lradius 45.5911
lwrist -1.52577
lhand -31.2288 53.7234
lfingers 7.12502
lthumb -4.50408 443.656
rfemur -24.0525 2.21284 9.13803
rtibia 31.5591
rfoot -16.0089 -4.64
rtoes -11.9879
lfemur -7.64335 4.12822 -17.5641
ltibia 16.9763
lfoot -15.8638 0.0597634
ltoes -19.517
460
root 9.95448 18.0213 -2.41961 -169.177 28.5755 181.089
lowerback 2.50564 2.56993 -12.4796
upperback -0.376314 3.48281 7.79322
thorax -3.07584 2.18482 15.6125
lowerneck -22.4573 -7.46944 -16.8809
upperneck 21.2685 -3.01441 -2.76024
head 11.0099 -2.87471 1.21416
rclavicle -3.73715e-014 9.38264e-014
rhumerus 37.1197 8.99111 -69.5116
rradius 53.8468
rwrist -19.465
rhand -56.022 19.8593
rfingers 7.12502
rthumb -28.3572 -8.01318
lclavicle -3.73715e-014 9.38264e-014
lhumerus 41.5473 -6.60418 94.7186
lradius 45.2603
lwrist -1.3921
lhand -31.5192 53.7114
lfingers 7.12502
lthumb -4.78453 443.637
rfemur -24.2649 1.78662 9.64252
rtibia 31.9543
rfoot -16.4832 -5.14094
rtoes -13.0223
lfemur -7.82928 4.16186 -17.1567
ltibia 16.903
lfoot -15.8911 -0.367664
ltoes -20.9242
461
root 10.0261 18.0317 -2.40257 -169.019 28.2573 181.031
lowerback 2.57529 2.58724 -12.329
upperback -0.482119 3.49429 7.68838
thorax -3.21762 2.20147 15.3833
lowerneck -22.8355 -7.48951 -16.8371
upperneck 21.6271 -3.04468 -2.47588
head 11.2152 -2.8811 1.29476
rclavicle 5.28767e-014 -6.52014e-014
rhumerus 37.467 8.76488 -69.6908
rradius 53.4195
rwrist -19.1487
rhand -56.0318 19.1453
rfingers 7.12502
rthumb -28.3666 -8.72565
lclavicle 5.28767e-014 -6.52014e-014
lhumerus 41.8059 -6.80647 94.3536
lradius 44.8595
lwrist -1.10145
lhand -31.8828 53.5927
lfingers 7.12502
lthumb -5.13554 443.511
rfemur -24.4937 1.43801 9.94606
rtibia 32.3495
rfoot -17.1501 -5.27884
rtoes -12.1112
lfemur -7.88207 3.8181 -16.9227
ltibia 16.7231
lfoot -15.5358 -0.363756
ltoes -20.7048
462
root 10.1019 18.0424 -2.38687 -168.952 27.965 180.734
lowerback 2.56234 2.55409 -12.4727
upperback -0.61182 3.42815 7.55386
thorax -3.32826 2.1803 15.3162
lowerneck -23.0625 -7.45815 -16.721
upperneck 21.8669 -3.01239 -2.37691
head 11.3417 -2.86346 1.31263
rclavicle 5.96354e-014 9.06458e-014
rhumerus 37.7775 8.7532 -69.817
rradius 52.9356
rwrist -19.1167
rhand -55.8873 19.1228
rfingers 7.12502
rthumb -28.2285 -8.77097
lclavicle 5.96354e-014 9.06458e-014
lhumerus 42.0048 -6.88753 93.9266
lradius 44.4606
lwrist -0.853504
lhand -32.1991 53.9131
lfingers 7.12502
lthumb -5.44101 443.823
rfemur -24.7293 1.12456 9.98661
rtibia 32.7109
rfoot -17.5763 -5.33977
rtoes -11.7479
lfemur -7.8671 2.94554 -16.9423
ltibia 16.3739
lfoot -15.0095 0.185083
ltoes -19.5265
463
root 10.1814 18.0426 -2.37231 -169.135 27.7433 180.058
lowerback 2.60039 2.51232 -12.9811
upperback -0.693874 3.31852 7.34815
thorax -3.41999 2.13424 15.397
lowerneck -23.1936 -7.34368 -16.7441
upperneck 22.001 -2.86627 -2.19207
head 11.4069 -2.78708 1.40701
rclavicle 1.82882e-014 -1.145e-013
rhumerus 38.1323 8.96571 -69.8125
rradius 52.434
rwrist -19.2201
rhand -55.9392 19.2703
rfingers 7.12502
rthumb -28.2781 -8.61526
lclavicle 1.82882e-014 -1.145e-013
lhumerus 42.1937 -6.71247 93.7069
lradius 43.9751
lwrist -0.892088
lhand -32.3522 53.8114
lfingers 7.12502
lthumb -5.58882 443.718
rfemur -24.9036 0.782882 9.638
rtibia 33.0132
rfoot -17.7061 -5.40626
rtoes -13.3581
lfemur -7.84939 2.8813 -17.3018
ltibia 16.1041
lfoot -14.8682 -0.116489
ltoes -18.6109
464
root 10.2588 18.0415 -2.37402 -169.18 27.7328 180.214
lowerback 2.62365 2.58642 -12.5793
upperback -0.609515 3.42904 7.29027
thorax -3.35059 2.16805 15.0619
lowerneck -23.9412 -7.09091 -16.6933
upperneck 22.8093 -2.49723 -1.63502
head 11.827 -2.60478 1.6551
rclavicle 5.96354e-014 5.56597e-014
rhumerus 38.5525 9.09103 -69.7708
rradius 51.7585
rwrist -19.1348
rhand -56.2408 19.1506
rfingers 7.12502
rthumb -28.5663 -8.6869
lclavicle 5.96354e-014 5.56597e-014
lhumerus 42.4818 -6.66066 93.443
lradius 43.4559
lwrist -0.916843
lhand -32.0898 53.3099
lfingers 7.12502
lthumb -5.33542 443.223
rfemur -24.8253 0.874393 10.0281
rtibia 33.2424
rfoot -17.6574 -5.3951
rtoes -14.7239
lfemur -7.5265 2.33993 -16.8986
ltibia 16.0105
lfoot -14.4852 0.354138
ltoes -18.4693
465
root 10.336 18.0489 -2.34954 -168.734 27.2521 181.246
lowerback 2.82834 2.54004 -11.3591
upperback -0.604564 3.42318 7.43932
thorax -3.38831 2.15554 14.4643
lowerneck -23.3213 -7.38405 -16.5978
upperneck 21.8371 -2.99353 -2.13781
head 11.3695 -2.82372 1.38081
rclavicle 4.81059e-014 7.63333e-014
rhumerus 39.0068 9.02937 -69.9488
rradius 51.0833
rwrist -18.8026
rhand -55.6716 17.9842
rfingers 7.12502
rthumb -28.0223 -9.94345
lclavicle 4.81059e-014 7.63333e-014
lhumerus 42.7637 -6.68439 92.9867
lradius 43.0485
lwrist -0.876079
lhand -31.72 53.53
lfingers 7.12502
lthumb -4.97833 443.452
rfemur -24.7747 0.924274 11.4355
rtibia 33.4727
rfoot -17.496 -5.60752
rtoes -15.6906
lfemur -7.49522 2.12868 -15.4771
ltibia 16.0024
lfoot -14.1329 0.146071
ltoes -16.6684
466
root 10.4132 18.059 -2.33149 -168.61 26.9202 181.712
lowerback 3.07495 2.56127 -10.6502
upperback -0.596845 3.46218 7.39851
thorax -3.48324 2.16703 13.9579
lowerneck -24.0185 -7.06284 -15.9886
upperneck 22.5755 -2.63137 -2.01628
head 11.7347 -2.64686 1.38058
rclavicle 1.94809e-014 2.22639e-014
rhumerus 39.3242 8.7641 -70.3013
rradius 50.6328
rwrist -19.0182
rhand -53.8586 17.2228
rfingers 7.12502
rthumb -26.288 -10.9758
lclavicle 1.94809e-014 2.22639e-014
lhumerus 43.0717 -6.73113 92.5949
lradius 42.5193
lwrist -1.02803
lhand -31.3812 53.6866
lfingers 7.12502
lthumb -4.65119 443.616
rfemur -24.6619 0.873982 12.2633
rtibia 33.6785
rfoot -17.4859 -5.75355
rtoes -16.1805
lfemur -7.4148 1.78959 -14.6764
ltibia 16.0976
lfoot -14.2186 0.321959
ltoes -17.7445
467
root 10.4971 18.0678 -2.31876 -168.714 26.9178 181.373
lowerback 3.07334 2.67122 -10.8756
upperback -0.634028 3.57469 7.1893
thorax -3.55961 2.22366 13.8394
lowerneck -22.9253 -7.57338 -16.3486
upperneck 21.2877 -3.47052 -2.20904
head 11.1098 -3.00197 1.24766
rclavicle -3.02153e-014 5.40694e-014
rhumerus 39.4738 9.02547 -70.0691
rradius 49.9334
rwrist -18.4389
rhand -54.7636 18.1223
rfingers 7.12502
rthumb -27.154 -9.94412
lclavicle -3.02153e-014 5.40694e-014
lhumerus 43.392 -6.81831 92.281
lradius 41.8314
lwrist -1.19927
lhand -31.0685 53.1793
lfingers 7.12502
lthumb -4.34925 443.115
rfemur -24.7819 0.964751 12.2113
rtibia 33.9394
rfoot -17.5852 -5.90743
rtoes -16.4275
lfemur -7.44725 1.52552 -14.7518
ltibia 16.2363
lfoot -14.5978 0.765972
ltoes -19.2437
468
root 10.5886 18.0725 -2.29465 -168.579 26.8111 181.35
lowerback 3.03017 2.71452 -10.9755
upperback -0.735747 3.62821 7.14268
thorax -3.66573 2.26465 13.8415
lowerneck -22.4787 -7.53095 -16.4531
upperneck 20.8693 -3.57212 -1.98949
head 10.8809 -3.00778 1.34189
rclavicle 1.76918e-014 7.95139e-015
rhumerus 39.6855 9.34682 -69.8248
rradius 49.2745
rwrist -18.6621
rhand -55.6463 19.2421
rfingers 7.12502
rthumb -27.9981 -8.68954
lclavicle 1.76918e-014 7.95139e-015
lhumerus 43.6322 -6.88342 91.8457
lradius 41.1828
lwrist -1.25401
lhand -30.9845 52.8871
lfingers 7.12502
lthumb -4.26816 442.824
rfemur -25.0518 0.938479 12.5489
rtibia 34.2868
rfoot -17.7478 -5.98981
rtoes -16.9765
lfemur -7.48154 1.57276 -14.4413
ltibia 16.1032
lfoot -14.6821 0.769786
ltoes -18.8884
469
root 10.6765 18.0732 -2.26978 -168.463 26.5844 181.489
lowerback 3.06697 2.74764 -10.7679
upperback -0.80044 3.67642 7.09334
thorax -3.75361 2.29288 13.6467
lowerneck -23.4227 -6.93821 -16.2195
upperneck 22.0466 -2.81882 -1.18824
head 11.4363 -2.62758 1.70874
rclavicle -9.54166e-015 5.88403e-014
rhumerus 39.9364 9.41812 -69.7128
rradius 48.6106
rwrist -18.371
rhand -55.7825 18.1968
rfingers 7.12502
rthumb -28.1284 -9.71349
lclavicle -9.54166e-015 5.88403e-014
lhumerus 43.9202 -7.08157 91.3267
lradius 40.5475
lwrist -1.30344
lhand -31.0858 53.2011
lfingers 7.12502
lthumb -4.36601 443.136
rfemur -25.2439 0.716289 13.0861
rtibia 34.7017
rfoot -18.0216 -6.0052
rtoes -16.4559
lfemur -7.39698 1.32914 -13.9489
ltibia 15.8436
lfoot -14.3846 0.784396
ltoes -18.5398
470
root 10.7524 18.0723 -2.27385 -168.711 26.5055 181.457
lowerback 3.10229 2.8312 -10.3667
upperback -0.722552 3.78251 6.88983
thorax -3.67909 2.31635 13.1481
lowerneck -21.8731 -7.85317 -17.5036
upperneck 20.4572 -4.28868 -0.4315
head 10.7219 -3.22619 1.9629
rclavicle -2.5842e-014 8.74653e-014
rhumerus 40.2134 9.47553 -69.7311
rradius 47.9312
rwrist -18.1428
rhand -55.3136 17.4168
rfingers 7.12502
rthumb -27.68 -10.5664
lclavicle -2.5842e-014 8.74653e-014
lhumerus 44.2038 -7.27495 90.7832
lradius 39.8681
lwrist -1.47032
lhand -31.0314 53.2922
lfingers 7.12502
lthumb -4.31345 443.228
rfemur -25.0788 0.575419 13.3287
rtibia 35.1108
rfoot -18.3231 -5.98521
rtoes -15.7306
lfemur -6.92018 0.72337 -13.7832
ltibia 15.6201
lfoot -14.1621 1.35858
ltoes -19.8076
471
root 10.8273 18.0729 -2.25292 -168.714 25.7171 181.42
lowerback 3.33744 2.71229 -9.91578
upperback -0.844812 3.60679 6.70979
thorax -3.8459 2.22578 12.6671
lowerneck -22.3593 -7.55113 -16.5486
upperneck 20.8752 -3.96994 -0.856151
head 10.8977 -3.08275 1.70743
rclavicle 6.91771e-014 7.15625e-014
rhumerus 40.4926 9.48347 -70.0104
rradius 47.2307
rwrist -18.4938
rhand -55.2307 18.8134
rfingers 7.12502
rthumb -27.6008 -9.18245
lclavicle 6.91771e-014 7.15625e-014
lhumerus 44.4812 -7.50532 90.1528
lradius 39.2086
lwrist -1.60719
lhand -30.8112 53.0175
lfingers 7.12502
lthumb -4.10082 442.958
rfemur -25.0779 0.0703348 13.7159
rtibia 35.5055
rfoot -18.5243 -6.28158
rtoes -15.4825
lfemur -6.91821 0.623909 -13.4323
ltibia 15.3935
lfoot -13.9249 0.939915
ltoes -21.6559
472
root 10.9037 18.07 -2.23193 -168.645 25.112 181.347
lowerback 3.32729 2.61862 -9.63635
upperback -0.916366 3.48135 6.57149
thorax -3.85122 2.15309 12.3478
lowerneck -23.8489 -7.0958 -16.1835
upperneck 22.5494 -3.2779 -0.201318
head 11.7439 -2.75326 1.98302
rclavicle -3.598e-014 1.11319e-014
rhumerus 40.8267 9.34349 -70.3379
rradius 46.5313
rwrist -18.3848
rhand -55.1922 18.9093
rfingers 7.12502
rthumb -27.564 -9.09242
lclavicle -3.598e-014 1.11319e-014
lhumerus 44.8659 -7.70327 89.6258
lradius 38.4546
lwrist -1.83014
lhand -30.5845 53.2257
lfingers 7.12502
lthumb -3.88192 443.17
rfemur -25.2085 -0.393732 14.0518
rtibia 35.8445
rfoot -18.7079 -6.45192
rtoes -14.9311
lfemur -7.04141 0.370692 -13.1527
ltibia 15.3117
lfoot -13.5077 0.896071
ltoes -22.4965
